<svg width="14" height="14" viewBox="0 0 14 14" fill="none" xmlns="http://www.w3.org/2000/svg">
<path d="M6.99967 0.333496C7.88373 0.333496 8.73158 0.684685 9.3567 1.30981C9.98182 1.93493 10.333 2.78277 10.333 3.66683C10.333 4.55088 9.98182 5.39873 9.3567 6.02385C8.73158 6.64897 7.88373 7.00016 6.99967 7.00016C6.11562 7.00016 5.26777 6.64897 4.64265 6.02385C4.01753 5.39873 3.66634 4.55088 3.66634 3.66683C3.66634 2.78277 4.01753 1.93493 4.64265 1.30981C5.26777 0.684685 6.11562 0.333496 6.99967 0.333496ZM6.99967 8.66683C10.683 8.66683 13.6663 10.1585 13.6663 12.0002V13.6668H0.333008V12.0002C0.333008 10.1585 3.31634 8.66683 6.99967 8.66683Z" fill="#FF6100"/>
</svg>
