<svg width="12" height="18" viewBox="0 0 12 18" fill="none" xmlns="http://www.w3.org/2000/svg">
<path fill-rule="evenodd" clip-rule="evenodd" d="M9.40455 14.4466C8.70455 14.4466 8.25909 14.3301 7.94091 13.9806C7.68637 13.6893 7.55909 13.2233 7.55909 12.5243V8.3301H10.6773L10.2955 5.18448H7.62273V2.3301V0C7.62273 0 6.41364 0.0582595 6.03182 0.116512C3.99546 0.233017 2.65909 1.51456 2.65909 2.91262V5.35923L0.75 5.47574V8.38836H2.65909V13.2233C2.65909 14.6796 3.10455 15.8447 3.93182 16.7184C4.75909 17.5922 6.03181 18 7.68636 18C8.51363 18 9.15 17.9417 9.72273 17.8835C10.6136 17.7087 11.25 17.0097 11.25 16.1359V14.0388C10.6136 14.2718 9.97728 14.4466 9.40455 14.4466Z" fill="#FF6100"/>
</svg>
