<svg width="10" height="16" viewBox="0 0 10 16" fill="none" xmlns="http://www.w3.org/2000/svg">
<path fill-rule="evenodd" clip-rule="evenodd" d="M7.83712 12.5388C7.25379 12.5388 6.88258 12.4417 6.61743 12.1505C6.4053 11.9078 6.29924 11.5194 6.29924 10.9369V7.44175H8.89773L8.57955 4.8204H6.35227V2.44175V0.5C6.35227 0.5 5.3447 0.54855 5.02652 0.597093C3.32955 0.694181 2.21591 1.76213 2.21591 2.92718V4.96602L0.625 5.06312V7.4903H2.21591V11.5194C2.21591 12.733 2.58712 13.7039 3.27652 14.432C3.96591 15.1602 5.02651 15.5 6.4053 15.5C7.09469 15.5 7.625 15.4515 8.10228 15.4029C8.8447 15.2573 9.375 14.6748 9.375 13.9466V12.199C8.8447 12.3932 8.3144 12.5388 7.83712 12.5388Z" fill="black" fill-opacity="0.5"/>
</svg>
