<svg width="16" height="15" viewBox="0 0 16 15" fill="none" xmlns="http://www.w3.org/2000/svg">
<path d="M7.99997 6.67654C7.03749 6.67654 6.24399 6.36428 5.61947 5.73977C4.99496 5.11525 4.6827 4.32015 4.6827 3.35447C4.6827 2.38877 4.99496 1.59526 5.61947 0.973943C6.24399 0.352643 7.03749 0.0419922 7.99997 0.0419922C8.96246 0.0419922 9.75596 0.352643 10.3805 0.973943C11.005 1.59526 11.3172 2.38877 11.3172 3.35447C11.3172 4.32015 11.005 5.11525 10.3805 5.73977C9.75596 6.36428 8.96246 6.67654 7.99997 6.67654ZM0.5 14.3073V12.4092C0.5 11.8721 0.642308 11.4041 0.926925 11.0054C1.21154 10.6067 1.58142 10.3003 2.03655 10.0862C3.0891 9.61824 4.10373 9.26568 5.08045 9.02849C6.05718 8.79133 7.03026 8.67274 7.99968 8.67274C8.96911 8.67274 9.93972 8.79389 10.9115 9.03619C11.8833 9.27849 12.8934 9.63076 13.9418 10.093C14.4147 10.3065 14.7926 10.6117 15.0755 11.0084C15.3585 11.4051 15.5 11.8721 15.5 12.4092V14.3073H0.5ZM1.6346 13.1727H14.3654V12.4092C14.3654 12.149 14.283 11.8996 14.1182 11.6612C13.9535 11.4227 13.7384 11.2355 13.473 11.0996C12.4897 10.6214 11.5622 10.2865 10.6905 10.0948C9.81877 9.90315 8.92194 9.80732 7.99997 9.80732C7.07801 9.80732 6.17444 9.90315 5.28927 10.0948C4.40411 10.2865 3.47819 10.6214 2.51152 11.0996C2.24614 11.2355 2.03364 11.4227 1.87402 11.6612C1.71441 11.8996 1.6346 12.149 1.6346 12.4092V13.1727ZM7.99997 5.54197C8.62432 5.54197 9.14419 5.33427 9.55957 4.91887C9.97496 4.50348 10.1827 3.98362 10.1827 3.35927C10.1827 2.73492 9.97496 2.21505 9.55957 1.79967C9.14419 1.38428 8.62432 1.17659 7.99997 1.17659C7.37562 1.17659 6.85576 1.38428 6.44037 1.79967C6.02499 2.21505 5.8173 2.73492 5.8173 3.35927C5.8173 3.98362 6.02499 4.50348 6.44037 4.91887C6.85576 5.33427 7.37562 5.54197 7.99997 5.54197Z" fill="black" fill-opacity="0.5"/>
</svg>
