<svg width="20" height="20" viewBox="0 0 20 20" fill="none" xmlns="http://www.w3.org/2000/svg">
<rect width="20" height="20" fill="white"/>
<path d="M3.13366 3.08317L1.78366 4.0665L3.69199 6.6665C4.19823 6.40058 4.73573 6.19902 5.29199 6.0665M9.16699 7.49984V9.1665H15.0003V9.40817L10.8337 10.5915V12.9165C10.8337 13.6582 10.6137 14.3832 10.2017 14.9999C9.78962 15.6166 9.20395 16.0972 8.51872 16.3811C7.8335 16.6649 7.0795 16.7391 6.35207 16.5944C5.62464 16.4498 4.95646 16.0926 4.43201 15.5682C3.90756 15.0437 3.55041 14.3755 3.40572 13.6481C3.26102 12.9207 3.33528 12.1667 3.61911 11.4814C3.90294 10.7962 4.38359 10.2105 5.00027 9.79849C5.61696 9.38644 6.34198 9.1665 7.08366 9.1665H7.50033V7.49984H7.08366C6.01235 7.49984 4.96509 7.81752 4.07432 8.41271C3.18356 9.0079 2.48929 9.85387 2.07931 10.8436C1.66934 11.8334 1.56207 12.9225 1.77107 13.9732C1.98008 15.024 2.49597 15.9891 3.2535 16.7467C4.01103 17.5042 4.97619 18.0201 6.02692 18.2291C7.07765 18.4381 8.16676 18.3308 9.15653 17.9209C10.1463 17.5109 10.9923 16.8166 11.5875 15.9258C12.1826 15.0351 12.5003 13.9878 12.5003 12.9165V11.5915L18.3337 9.99984V7.49984M13.5337 3.08317L11.542 5.83317H13.6003L14.8837 4.0665M7.50033 1.6665V5.83317H9.16699V1.6665H7.50033Z" fill="black"/>
</svg>
