<svg width="20" height="20" viewBox="0 0 20 20" fill="none" xmlns="http://www.w3.org/2000/svg">
<path d="M12.9688 10C12.9688 10.1243 12.9194 10.2435 12.8315 10.3315C12.7435 10.4194 12.6243 10.4688 12.5 10.4688H7.5C7.37568 10.4688 7.25645 10.4194 7.16854 10.3315C7.08064 10.2435 7.03125 10.1243 7.03125 10C7.03125 9.87568 7.08064 9.75645 7.16854 9.66854C7.25645 9.58064 7.37568 9.53125 7.5 9.53125H12.5C12.6243 9.53125 12.7435 9.58064 12.8315 9.66854C12.9194 9.75645 12.9688 9.87568 12.9688 10ZM12.5 12.0312H7.5C7.37568 12.0312 7.25645 12.0806 7.16854 12.1685C7.08064 12.2565 7.03125 12.3757 7.03125 12.5C7.03125 12.6243 7.08064 12.7435 7.16854 12.8315C7.25645 12.9194 7.37568 12.9688 7.5 12.9688H12.5C12.6243 12.9688 12.7435 12.9194 12.8315 12.8315C12.9194 12.7435 12.9688 12.6243 12.9688 12.5C12.9688 12.3757 12.9194 12.2565 12.8315 12.1685C12.7435 12.0806 12.6243 12.0312 12.5 12.0312ZM16.7188 3.75V15.625C16.7188 16.2466 16.4718 16.8427 16.0323 17.2823C15.5927 17.7218 14.9966 17.9688 14.375 17.9688H5.625C5.0034 17.9688 4.40726 17.7218 3.96772 17.2823C3.52818 16.8427 3.28125 16.2466 3.28125 15.625V3.75C3.28125 3.45992 3.39648 3.18172 3.6016 2.9766C3.80672 2.77148 4.08492 2.65625 4.375 2.65625H5.78125V1.875C5.78125 1.75068 5.83064 1.63145 5.91854 1.54354C6.00645 1.45564 6.12568 1.40625 6.25 1.40625C6.37432 1.40625 6.49355 1.45564 6.58146 1.54354C6.66936 1.63145 6.71875 1.75068 6.71875 1.875V2.65625H9.53125V1.875C9.53125 1.75068 9.58064 1.63145 9.66854 1.54354C9.75645 1.45564 9.87568 1.40625 10 1.40625C10.1243 1.40625 10.2435 1.45564 10.3315 1.54354C10.4194 1.63145 10.4688 1.75068 10.4688 1.875V2.65625H13.2812V1.875C13.2812 1.75068 13.3306 1.63145 13.4185 1.54354C13.5065 1.45564 13.6257 1.40625 13.75 1.40625C13.8743 1.40625 13.9935 1.45564 14.0815 1.54354C14.1694 1.63145 14.2188 1.75068 14.2188 1.875V2.65625H15.625C15.9151 2.65625 16.1933 2.77148 16.3984 2.9766C16.6035 3.18172 16.7188 3.45992 16.7188 3.75ZM15.7812 3.75C15.7812 3.70856 15.7648 3.66882 15.7355 3.63951C15.7062 3.61021 15.6664 3.59375 15.625 3.59375H14.2188V4.375C14.2188 4.49932 14.1694 4.61855 14.0815 4.70646C13.9935 4.79436 13.8743 4.84375 13.75 4.84375C13.6257 4.84375 13.5065 4.79436 13.4185 4.70646C13.3306 4.61855 13.2812 4.49932 13.2812 4.375V3.59375H10.4688V4.375C10.4688 4.49932 10.4194 4.61855 10.3315 4.70646C10.2435 4.79436 10.1243 4.84375 10 4.84375C9.87568 4.84375 9.75645 4.79436 9.66854 4.70646C9.58064 4.61855 9.53125 4.49932 9.53125 4.375V3.59375H6.71875V4.375C6.71875 4.49932 6.66936 4.61855 6.58146 4.70646C6.49355 4.79436 6.37432 4.84375 6.25 4.84375C6.12568 4.84375 6.00645 4.79436 5.91854 4.70646C5.83064 4.61855 5.78125 4.49932 5.78125 4.375V3.59375H4.375C4.33356 3.59375 4.29382 3.61021 4.26451 3.63951C4.23521 3.66882 4.21875 3.70856 4.21875 3.75V15.625C4.21875 15.998 4.36691 16.3556 4.63063 16.6194C4.89435 16.8831 5.25204 17.0312 5.625 17.0312H14.375C14.748 17.0312 15.1056 16.8831 15.3694 16.6194C15.6331 16.3556 15.7812 15.998 15.7812 15.625V3.75Z" fill="black"/>
</svg>
