<svg width="20" height="20" viewBox="0 0 20 20" fill="none" xmlns="http://www.w3.org/2000/svg">
<mask id="mask0_316_1475" style="mask-type:alpha" maskUnits="userSpaceOnUse" x="0" y="0" width="20" height="20">
<rect width="20" height="20" fill="#D9D9D9"/>
</mask>
<g mask="url(#mask0_316_1475)">
<path d="M3.75 15.7373V14.6903H5.25642V8.22983C5.25642 7.10404 5.59999 6.10296 6.28712 5.22658C6.97426 4.35021 7.86467 3.80126 8.95833 3.57975V3.12516C8.95833 2.83582 9.05951 2.58987 9.26187 2.38733C9.46424 2.18477 9.70996 2.0835 9.99904 2.0835C10.2881 2.0835 10.5342 2.18477 10.7371 2.38733C10.9401 2.58987 11.0416 2.83582 11.0416 3.12516V3.58241C12.1353 3.80215 13.0257 4.35021 13.7128 5.22658C14.4 6.10296 14.7435 7.10404 14.7435 8.22983V14.6903H16.25V15.7373H3.75ZM9.99856 18.077C9.58391 18.077 9.22942 17.9295 8.93508 17.6345C8.64075 17.3395 8.49358 16.9849 8.49358 16.5706H11.5064C11.5064 16.9862 11.3587 17.3412 11.0635 17.6355C10.7682 17.9299 10.4132 18.077 9.99856 18.077ZM6.3034 14.6904H13.6966V8.22985C13.6966 7.20671 13.3363 6.33483 12.6156 5.6142C11.895 4.89357 11.0231 4.53325 9.99998 4.53325C8.97683 4.53325 8.10494 4.89356 7.38431 5.61418C6.6637 6.33481 6.3034 7.20669 6.3034 8.22983V14.6904Z" fill="#1C1B1F"/>
</g>
</svg>
